<?xml version="1.0" encoding="utf-8"?>
<!-- Generator: Adobe Illustrator 19.0.0, SVG Export Plug-In . SVG Version: 6.00 Build 0)  -->
<svg version="1.1" id="Layer_1" xmlns="http://www.w3.org/2000/svg" xmlns:xlink="http://www.w3.org/1999/xlink" x="0px" y="0px"
	 viewBox="-1063 1065 32 32" style="enable-background:new -1063 1065 32 32;" xml:space="preserve">
<style type="text/css">
	.st0{fill:#FF5003;}
	.st1{fill:#FFFFFF;}
</style>
<path class="st0" d="M-1063,1081.2c0-8.6,7.1-15.6,15.9-15.6c8.8,0,15.9,7,15.9,15.6c0,8.6-7.1,15.6-15.9,15.6
	C-1055.9,1096.8-1063,1089.8-1063,1081.2"/>
<path class="st1" d="M-1037.9,1080.9h-18.5c-0.1,0-0.3,0.1-0.3,0.2c0,0.1,0.1,0.2,0.3,0.2h9v7.3h-2.3c-0.1,0-0.3,0.1-0.3,0.2
	c0,0.1,0.1,0.2,0.3,0.2h5.2c0.1,0,0.3-0.1,0.3-0.2c0-0.1-0.1-0.2-0.3-0.2h-2.3v-7.3h9c0.1,0,0.3-0.1,0.3-0.2
	C-1037.6,1081-1037.7,1080.9-1037.9,1080.9 M-1042,1074.3c1.5,0,2.6,1.2,2.6,2.6c0,1.4-1.2,2.6-2.6,2.6c-1.5,0-2.6-1.2-2.6-2.6
	C-1044.7,1075.5-1043.5,1074.3-1042,1074.3 M-1042,1080c1.7,0,3.1-1.4,3.1-3.1c0-1.7-1.4-3.1-3.1-3.1s-3.1,1.4-3.1,3.1
	C-1045.2,1078.6-1043.8,1080-1042,1080 M-1051.9,1074.3c0.5,0,1,0.4,1,1s-0.4,1-1,1c-0.5,0-1-0.4-1-1S-1052.4,1074.3-1051.9,1074.3
	 M-1051.9,1076.7c0.8,0,1.5-0.7,1.5-1.5s-0.7-1.5-1.5-1.5c-0.8,0-1.5,0.7-1.5,1.5S-1052.7,1076.7-1051.9,1076.7 M-1049.9,1077.6
	c0.5,0,1,0.4,1,1c0,0.5-0.4,1-1,1c-0.5,0-1-0.4-1-1C-1050.9,1078-1050.5,1077.6-1049.9,1077.6 M-1051.4,1078.5
	c0,0.8,0.7,1.5,1.5,1.5c0.8,0,1.5-0.7,1.5-1.5c0-0.8-0.7-1.5-1.5-1.5C-1050.7,1077.1-1051.4,1077.7-1051.4,1078.5 M-1053.9,1077.6
	c0.5,0,1,0.4,1,1c0,0.5-0.4,1-1,1s-1-0.4-1-1C-1054.8,1078-1054.4,1077.6-1053.9,1077.6 M-1053.9,1080c0.8,0,1.5-0.7,1.5-1.5
	c0-0.8-0.7-1.5-1.5-1.5c-0.8,0-1.5,0.7-1.5,1.5C-1055.4,1079.3-1054.7,1080-1053.9,1080"/>
</svg>
